<svg xmlns="http://www.w3.org/2000/svg" xmlns:xlink="http://www.w3.org/1999/xlink" width="1200" height="1200" viewBox="0 0 1200 1200"><g><g transform="translate(600 600) scale(0.69 0.69) rotate(0) translate(-600 -600)" style="fill:#156ca6"><svg fill="#156ca6" xmlns="http://www.w3.org/2000/svg" xmlns:xlink="http://www.w3.org/1999/xlink" xmlns:sketch="http://www.bohemiancoding.com/sketch/ns" viewBox="0 0 110 110" version="1.1" x="0px" y="0px"><title>flag</title><desc>Created with Sketch.</desc><g stroke="none" stroke-width="1" fill="none" fill-rule="evenodd" sketch:type="MSPage"><g sketch:type="MSArtboardGroup" fill="#156ca6"><path d="M99,64.4003636 C73.5340125,46.4581818 48.0691125,82.3425455 22.603125,64.4003636 L22.603125,19.5454545 C48.0691125,37.4876364 73.5340125,1.60327273 99,19.5454545 L99,64.4003636 Z M22.875,12.4545455 C22.875,15.4665455 20.4400875,17.9090909 17.4375,17.9090909 C14.4349125,17.9090909 12,15.4665455 12,12.4545455 C12,9.44254545 14.4349125,7 17.4375,7 C20.4400875,7 22.875,9.44254545 22.875,12.4545455 Z M19.6125,100.818182 L19.6125,21.1818182 C19.6125,19.9774545 18.6381,19 17.4375,19 C16.2358125,19 15.2625,19.9774545 15.2625,21.1818182 L15.2625,100.818182 C15.2625,102.022545 16.2358125,103 17.4375,103 C18.6381,103 19.6125,102.022545 19.6125,100.818182 L19.6125,100.818182 Z" sketch:type="MSShapeGroup"></path></g></g></svg></g></g></svg>